{
	"patcher" : 	{
		"fileversion" : 1,
		"appversion" : 		{
			"major" : 8,
			"minor" : 6,
			"revision" : 5,
			"architecture" : "x64",
			"modernui" : 1
		}
,
		"classnamespace" : "box",
		"rect" : [ 34.0, 114.0, 1660.0, 903.0 ],
		"bglocked" : 0,
		"openinpresentation" : 1,
		"default_fontsize" : 12.0,
		"default_fontface" : 0,
		"default_fontname" : "Arial",
		"gridonopen" : 1,
		"gridsize" : [ 4.0, 4.0 ],
		"gridsnaponopen" : 1,
		"objectsnaponopen" : 1,
		"statusbarvisible" : 2,
		"toolbarvisible" : 1,
		"lefttoolbarpinned" : 0,
		"toptoolbarpinned" : 0,
		"righttoolbarpinned" : 0,
		"bottomtoolbarpinned" : 0,
		"toolbars_unpinned_last_save" : 0,
		"tallnewobj" : 0,
		"boxanimatetime" : 200,
		"enablehscroll" : 1,
		"enablevscroll" : 1,
		"devicewidth" : 0.0,
		"description" : "",
		"digest" : "",
		"tags" : "",
		"style" : "",
		"subpatcher_template" : "",
		"assistshowspatchername" : 0,
		"boxes" : [ 			{
				"box" : 				{
					"bgcolor" : [ 1.0, 1.0, 1.0, 1.0 ],
					"bgfillcolor_angle" : 270.0,
					"bgfillcolor_autogradient" : 0.79,
					"bgfillcolor_color" : [ 0.290196, 0.309804, 0.301961, 1.0 ],
					"bgfillcolor_color1" : [ 1.0, 1.0, 1.0, 1.0 ],
					"bgfillcolor_color2" : [ 1.0, 1.0, 1.0, 1.0 ],
					"bgfillcolor_proportion" : 0.39,
					"bgfillcolor_type" : "gradient",
					"fontname" : "Arial",
					"fontsize" : 12.0,
					"gradient" : 0,
					"id" : "obj-16",
					"maxclass" : "message",
					"numinlets" : 2,
					"numoutlets" : 1,
					"outlettype" : [ "" ],
					"patching_rect" : [ 1040.0, 613.0, 29.5, 22.0 ],
					"presentation" : 1,
					"presentation_rect" : [ 433.5, 72.0, 29.5, 22.0 ],
					"text" : "30",
					"textcolor" : [ 0.180392, 0.384314, 0.384314, 1.0 ]
				}

			}
, 			{
				"box" : 				{
					"bgcolor" : [ 1.0, 1.0, 1.0, 1.0 ],
					"bgfillcolor_angle" : 270.0,
					"bgfillcolor_autogradient" : 0.79,
					"bgfillcolor_color" : [ 0.290196, 0.309804, 0.301961, 1.0 ],
					"bgfillcolor_color1" : [ 1.0, 1.0, 1.0, 1.0 ],
					"bgfillcolor_color2" : [ 1.0, 1.0, 1.0, 1.0 ],
					"bgfillcolor_proportion" : 0.39,
					"bgfillcolor_type" : "gradient",
					"fontname" : "Arial",
					"fontsize" : 12.0,
					"gradient" : 0,
					"id" : "obj-12",
					"maxclass" : "message",
					"numinlets" : 2,
					"numoutlets" : 1,
					"outlettype" : [ "" ],
					"patching_rect" : [ 978.25, 613.0, 29.5, 22.0 ],
					"presentation" : 1,
					"presentation_rect" : [ 398.25, 72.0, 29.5, 22.0 ],
					"text" : "15",
					"textcolor" : [ 0.180392, 0.384314, 0.384314, 1.0 ]
				}

			}
, 			{
				"box" : 				{
					"bgcolor" : [ 1.0, 1.0, 1.0, 1.0 ],
					"bgfillcolor_angle" : 270.0,
					"bgfillcolor_autogradient" : 0.79,
					"bgfillcolor_color" : [ 0.290196, 0.309804, 0.301961, 1.0 ],
					"bgfillcolor_color1" : [ 1.0, 1.0, 1.0, 1.0 ],
					"bgfillcolor_color2" : [ 1.0, 1.0, 1.0, 1.0 ],
					"bgfillcolor_proportion" : 0.39,
					"bgfillcolor_type" : "gradient",
					"fontname" : "Arial",
					"fontsize" : 12.0,
					"gradient" : 0,
					"id" : "obj-6",
					"maxclass" : "message",
					"numinlets" : 2,
					"numoutlets" : 1,
					"outlettype" : [ "" ],
					"patching_rect" : [ 941.0, 613.0, 29.5, 22.0 ],
					"presentation" : 1,
					"presentation_rect" : [ 361.25, 72.0, 29.5, 22.0 ],
					"text" : "1",
					"textcolor" : [ 0.180392, 0.384314, 0.384314, 1.0 ]
				}

			}
, 			{
				"box" : 				{
					"bgcolor" : [ 1.0, 1.0, 1.0, 1.0 ],
					"bgfillcolor_angle" : 270.0,
					"bgfillcolor_autogradient" : 0.79,
					"bgfillcolor_color" : [ 0.290196, 0.309804, 0.301961, 1.0 ],
					"bgfillcolor_color1" : [ 1.0, 1.0, 1.0, 1.0 ],
					"bgfillcolor_color2" : [ 1.0, 1.0, 1.0, 1.0 ],
					"bgfillcolor_proportion" : 0.39,
					"bgfillcolor_type" : "gradient",
					"fontname" : "Arial",
					"fontsize" : 12.0,
					"gradient" : 0,
					"id" : "obj-1",
					"maxclass" : "message",
					"numinlets" : 2,
					"numoutlets" : 1,
					"outlettype" : [ "" ],
					"patching_rect" : [ 1338.0, 607.0, 29.5, 22.0 ],
					"presentation" : 1,
					"presentation_rect" : [ 680.5, 72.0, 29.5, 22.0 ],
					"text" : "360",
					"textcolor" : [ 0.180392, 0.384314, 0.384314, 1.0 ]
				}

			}
, 			{
				"box" : 				{
					"fontface" : 1,
					"fontname" : "Arial",
					"fontsize" : 12.0,
					"id" : "obj-122",
					"maxclass" : "comment",
					"numinlets" : 1,
					"numoutlets" : 0,
					"patching_rect" : [ 143.0, 143.0, 84.0, 20.0 ],
					"presentation" : 1,
					"presentation_rect" : [ 1320.0, 587.0, 30.0, 20.0 ],
					"text" : "/32",
					"textcolor" : [ 0.0, 1.0, 0.803921568627451, 1.0 ]
				}

			}
, 			{
				"box" : 				{
					"args" : [ 30, 0 ],
					"bgmode" : 0,
					"border" : 0,
					"clickthrough" : 0,
					"enablehscroll" : 0,
					"enablevscroll" : 0,
					"id" : "obj-123",
					"lockeddragscroll" : 0,
					"lockedsize" : 0,
					"maxclass" : "bpatcher",
					"name" : "beat-divisor_ped.maxpat",
					"numinlets" : 1,
					"numoutlets" : 1,
					"offset" : [ -7.0, -6.0 ],
					"outlettype" : [ "bang" ],
					"patching_rect" : [ 456.0, 512.0, 332.0, 93.0 ],
					"presentation" : 1,
					"presentation_rect" : [ 1320.0, 583.0, 309.0, 143.0 ],
					"varname" : "beat-divisor[4]",
					"viewvisibility" : 1
				}

			}
, 			{
				"box" : 				{
					"fontface" : 1,
					"fontname" : "Arial",
					"fontsize" : 12.0,
					"id" : "obj-124",
					"maxclass" : "comment",
					"numinlets" : 1,
					"numoutlets" : 0,
					"patching_rect" : [ 128.0, 128.0, 84.0, 20.0 ],
					"presentation" : 1,
					"presentation_rect" : [ 1320.0, 423.0, 30.0, 20.0 ],
					"text" : "/16",
					"textcolor" : [ 0.0, 1.0, 0.803921568627451, 1.0 ]
				}

			}
, 			{
				"box" : 				{
					"args" : [ 15, 0 ],
					"bgmode" : 0,
					"border" : 0,
					"clickthrough" : 0,
					"enablehscroll" : 0,
					"enablevscroll" : 0,
					"id" : "obj-125",
					"lockeddragscroll" : 0,
					"lockedsize" : 0,
					"maxclass" : "bpatcher",
					"name" : "beat-divisor_ped.maxpat",
					"numinlets" : 1,
					"numoutlets" : 1,
					"offset" : [ -7.0, -6.0 ],
					"outlettype" : [ "bang" ],
					"patching_rect" : [ 430.0, 94.0, 332.0, 93.0 ],
					"presentation" : 1,
					"presentation_rect" : [ 1320.0, 422.0, 309.0, 144.0 ],
					"varname" : "beat-divisor[25]",
					"viewvisibility" : 1
				}

			}
, 			{
				"box" : 				{
					"angle" : 0.0,
					"bgcolor" : [ 0.0, 0.0, 0.0, 1.0 ],
					"id" : "obj-126",
					"maxclass" : "panel",
					"mode" : 0,
					"numinlets" : 1,
					"numoutlets" : 0,
					"patching_rect" : [ 407.847808999999984, 939.0, 28.956522, 29.0 ],
					"presentation" : 1,
					"presentation_rect" : [ 1320.0, 422.0, 328.5, 321.0 ],
					"proportion" : 0.39,
					"rounded" : 24
				}

			}
, 			{
				"box" : 				{
					"fontface" : 1,
					"fontname" : "Arial",
					"fontsize" : 12.0,
					"id" : "obj-112",
					"maxclass" : "comment",
					"numinlets" : 1,
					"numoutlets" : 0,
					"patching_rect" : [ 128.0, 128.0, 84.0, 20.0 ],
					"presentation" : 1,
					"presentation_rect" : [ 1320.0, 269.0, 30.0, 20.0 ],
					"text" : "/30",
					"textcolor" : [ 0.0, 1.0, 0.803921568627451, 1.0 ]
				}

			}
, 			{
				"box" : 				{
					"args" : [ 30, 0 ],
					"bgmode" : 0,
					"border" : 0,
					"clickthrough" : 0,
					"enablehscroll" : 0,
					"enablevscroll" : 0,
					"id" : "obj-113",
					"lockeddragscroll" : 0,
					"lockedsize" : 0,
					"maxclass" : "bpatcher",
					"name" : "beat-divisor_ped.maxpat",
					"numinlets" : 1,
					"numoutlets" : 1,
					"offset" : [ -7.0, -6.0 ],
					"outlettype" : [ "bang" ],
					"patching_rect" : [ 441.0, 497.0, 332.0, 93.0 ],
					"presentation" : 1,
					"presentation_rect" : [ 1320.0, 265.0, 309.0, 143.0 ],
					"varname" : "beat-divisor[23]",
					"viewvisibility" : 1
				}

			}
, 			{
				"box" : 				{
					"fontface" : 1,
					"fontname" : "Arial",
					"fontsize" : 12.0,
					"id" : "obj-114",
					"maxclass" : "comment",
					"numinlets" : 1,
					"numoutlets" : 0,
					"patching_rect" : [ 113.0, 113.0, 84.0, 20.0 ],
					"presentation" : 1,
					"presentation_rect" : [ 1320.0, 107.0, 30.0, 20.0 ],
					"text" : "/15",
					"textcolor" : [ 0.0, 1.0, 0.803921568627451, 1.0 ]
				}

			}
, 			{
				"box" : 				{
					"args" : [ 15, 0 ],
					"bgmode" : 0,
					"border" : 0,
					"clickthrough" : 0,
					"enablehscroll" : 0,
					"enablevscroll" : 0,
					"id" : "obj-115",
					"lockeddragscroll" : 0,
					"lockedsize" : 0,
					"maxclass" : "bpatcher",
					"name" : "beat-divisor_ped.maxpat",
					"numinlets" : 1,
					"numoutlets" : 1,
					"offset" : [ -7.0, -6.0 ],
					"outlettype" : [ "bang" ],
					"patching_rect" : [ 415.0, 79.0, 332.0, 93.0 ],
					"presentation" : 1,
					"presentation_rect" : [ 1320.0, 106.0, 309.0, 142.0 ],
					"varname" : "beat-divisor[24]",
					"viewvisibility" : 1
				}

			}
, 			{
				"box" : 				{
					"angle" : 0.0,
					"bgcolor" : [ 0.0, 0.0, 0.0, 1.0 ],
					"id" : "obj-116",
					"maxclass" : "panel",
					"mode" : 0,
					"numinlets" : 1,
					"numoutlets" : 0,
					"patching_rect" : [ 392.847808999999984, 924.0, 28.956522, 29.0 ],
					"presentation" : 1,
					"presentation_rect" : [ 1320.0, 101.0, 328.5, 334.0 ],
					"proportion" : 0.39,
					"rounded" : 24
				}

			}
, 			{
				"box" : 				{
					"fontface" : 1,
					"fontname" : "Arial",
					"fontsize" : 12.0,
					"id" : "obj-104",
					"maxclass" : "comment",
					"numinlets" : 1,
					"numoutlets" : 0,
					"patching_rect" : [ 113.0, 113.0, 84.0, 20.0 ],
					"presentation" : 1,
					"presentation_rect" : [ 996.0, 738.0, 30.0, 20.0 ],
					"text" : "/26",
					"textcolor" : [ 0.0, 1.0, 0.803921568627451, 1.0 ]
				}

			}
, 			{
				"box" : 				{
					"args" : [ 26, 0 ],
					"bgmode" : 0,
					"border" : 0,
					"clickthrough" : 0,
					"enablehscroll" : 0,
					"enablevscroll" : 0,
					"id" : "obj-108",
					"lockeddragscroll" : 0,
					"lockedsize" : 0,
					"maxclass" : "bpatcher",
					"name" : "beat-divisor_ped.maxpat",
					"numinlets" : 1,
					"numoutlets" : 1,
					"offset" : [ -7.0, -6.0 ],
					"outlettype" : [ "bang" ],
					"patching_rect" : [ 426.0, 482.0, 332.0, 93.0 ],
					"presentation" : 1,
					"presentation_rect" : [ 996.0, 734.0, 311.0, 141.0 ],
					"varname" : "beat-divisor[2]",
					"viewvisibility" : 1
				}

			}
, 			{
				"box" : 				{
					"fontface" : 1,
					"fontname" : "Arial",
					"fontsize" : 12.0,
					"id" : "obj-109",
					"maxclass" : "comment",
					"numinlets" : 1,
					"numoutlets" : 0,
					"patching_rect" : [ 98.0, 98.0, 84.0, 20.0 ],
					"presentation" : 1,
					"presentation_rect" : [ 1000.0, 580.0, 30.0, 20.0 ],
					"text" : "/13",
					"textcolor" : [ 0.0, 1.0, 0.803921568627451, 1.0 ]
				}

			}
, 			{
				"box" : 				{
					"args" : [ 13, 0 ],
					"bgmode" : 0,
					"border" : 0,
					"clickthrough" : 0,
					"enablehscroll" : 0,
					"enablevscroll" : 0,
					"id" : "obj-110",
					"lockeddragscroll" : 0,
					"lockedsize" : 0,
					"maxclass" : "bpatcher",
					"name" : "beat-divisor_ped.maxpat",
					"numinlets" : 1,
					"numoutlets" : 1,
					"offset" : [ -7.0, -6.0 ],
					"outlettype" : [ "bang" ],
					"patching_rect" : [ 400.0, 64.0, 332.0, 93.0 ],
					"presentation" : 1,
					"presentation_rect" : [ 996.0, 579.0, 311.0, 143.0 ],
					"varname" : "beat-divisor[19]",
					"viewvisibility" : 1
				}

			}
, 			{
				"box" : 				{
					"angle" : 0.0,
					"bgcolor" : [ 0.0, 0.0, 0.0, 1.0 ],
					"id" : "obj-111",
					"maxclass" : "panel",
					"mode" : 0,
					"numinlets" : 1,
					"numoutlets" : 0,
					"patching_rect" : [ 377.847808999999984, 909.0, 28.956522, 29.0 ],
					"presentation" : 1,
					"presentation_rect" : [ 987.0, 579.0, 329.0, 310.0 ],
					"proportion" : 0.39,
					"rounded" : 24
				}

			}
, 			{
				"box" : 				{
					"fontface" : 1,
					"fontname" : "Arial",
					"fontsize" : 12.0,
					"id" : "obj-72",
					"maxclass" : "comment",
					"numinlets" : 1,
					"numoutlets" : 0,
					"patching_rect" : [ 98.0, 98.0, 84.0, 20.0 ],
					"presentation" : 1,
					"presentation_rect" : [ 670.0, 734.0, 30.0, 20.0 ],
					"text" : "/22",
					"textcolor" : [ 0.0, 1.0, 0.803921568627451, 1.0 ]
				}

			}
, 			{
				"box" : 				{
					"args" : [ 22, 0 ],
					"bgmode" : 0,
					"border" : 0,
					"clickthrough" : 0,
					"enablehscroll" : 0,
					"enablevscroll" : 0,
					"id" : "obj-90",
					"lockeddragscroll" : 0,
					"lockedsize" : 0,
					"maxclass" : "bpatcher",
					"name" : "beat-divisor_ped.maxpat",
					"numinlets" : 1,
					"numoutlets" : 1,
					"offset" : [ -7.0, -6.0 ],
					"outlettype" : [ "bang" ],
					"patching_rect" : [ 411.0, 467.0, 332.0, 93.0 ],
					"presentation" : 1,
					"presentation_rect" : [ 660.0, 730.0, 312.0, 146.0 ],
					"varname" : "beat-divisor[7]",
					"viewvisibility" : 1
				}

			}
, 			{
				"box" : 				{
					"fontface" : 1,
					"fontname" : "Arial",
					"fontsize" : 12.0,
					"id" : "obj-92",
					"maxclass" : "comment",
					"numinlets" : 1,
					"numoutlets" : 0,
					"patching_rect" : [ 83.0, 83.0, 84.0, 20.0 ],
					"presentation" : 1,
					"presentation_rect" : [ 674.0, 579.0, 29.0, 20.0 ],
					"text" : "/11",
					"textcolor" : [ 0.0, 1.0, 0.803921568627451, 1.0 ]
				}

			}
, 			{
				"box" : 				{
					"args" : [ 11, 0 ],
					"bgmode" : 0,
					"border" : 0,
					"clickthrough" : 0,
					"enablehscroll" : 0,
					"enablevscroll" : 0,
					"id" : "obj-94",
					"lockeddragscroll" : 0,
					"lockedsize" : 0,
					"maxclass" : "bpatcher",
					"name" : "beat-divisor_ped.maxpat",
					"numinlets" : 1,
					"numoutlets" : 1,
					"offset" : [ -7.0, -6.0 ],
					"outlettype" : [ "bang" ],
					"patching_rect" : [ 385.0, 49.0, 332.0, 93.0 ],
					"presentation" : 1,
					"presentation_rect" : [ 660.0, 577.0, 312.0, 143.0 ],
					"varname" : "beat-divisor[20]",
					"viewvisibility" : 1
				}

			}
, 			{
				"box" : 				{
					"angle" : 0.0,
					"bgcolor" : [ 0.0, 0.0, 0.0, 1.0 ],
					"id" : "obj-95",
					"maxclass" : "panel",
					"mode" : 0,
					"numinlets" : 1,
					"numoutlets" : 0,
					"patching_rect" : [ 362.847808999999984, 894.0, 28.956522, 29.0 ],
					"presentation" : 1,
					"presentation_rect" : [ 652.0, 574.0, 330.0, 317.0 ],
					"proportion" : 0.39,
					"rounded" : 24
				}

			}
, 			{
				"box" : 				{
					"fontface" : 1,
					"fontname" : "Arial",
					"fontsize" : 12.0,
					"id" : "obj-18",
					"maxclass" : "comment",
					"numinlets" : 1,
					"numoutlets" : 0,
					"patching_rect" : [ 83.0, 83.0, 84.0, 20.0 ],
					"presentation" : 1,
					"presentation_rect" : [ 996.0, 267.0, 30.0, 20.0 ],
					"text" : "/14",
					"textcolor" : [ 1.0, 0.831372549019608, 0.0, 1.0 ]
				}

			}
, 			{
				"box" : 				{
					"args" : [ 14, 0 ],
					"bgmode" : 0,
					"border" : 0,
					"clickthrough" : 0,
					"enablehscroll" : 0,
					"enablevscroll" : 0,
					"id" : "obj-19",
					"lockeddragscroll" : 0,
					"lockedsize" : 0,
					"maxclass" : "bpatcher",
					"name" : "beat-divisor_ped.maxpat",
					"numinlets" : 1,
					"numoutlets" : 1,
					"offset" : [ -7.0, -6.0 ],
					"outlettype" : [ "bang" ],
					"patching_rect" : [ 396.0, 452.0, 332.0, 93.0 ],
					"presentation" : 1,
					"presentation_rect" : [ 996.0, 263.0, 311.0, 143.0 ],
					"varname" : "beat-divisor[3]",
					"viewvisibility" : 1
				}

			}
, 			{
				"box" : 				{
					"fontface" : 1,
					"fontname" : "Arial",
					"fontsize" : 12.0,
					"id" : "obj-41",
					"maxclass" : "comment",
					"numinlets" : 1,
					"numoutlets" : 0,
					"patching_rect" : [ 83.0, 83.0, 84.0, 20.0 ],
					"presentation" : 1,
					"presentation_rect" : [ 1000.0, 422.0, 36.0, 20.0 ],
					"text" : "/28",
					"textcolor" : [ 1.0, 0.831372549019608, 0.0, 1.0 ]
				}

			}
, 			{
				"box" : 				{
					"fontface" : 1,
					"fontname" : "Arial",
					"fontsize" : 12.0,
					"id" : "obj-44",
					"maxclass" : "comment",
					"numinlets" : 1,
					"numoutlets" : 0,
					"patching_rect" : [ 68.0, 68.0, 84.0, 20.0 ],
					"presentation" : 1,
					"presentation_rect" : [ 1000.0, 107.0, 23.0, 20.0 ],
					"text" : "/7",
					"textcolor" : [ 1.0, 0.831372549019608, 0.0, 1.0 ]
				}

			}
, 			{
				"box" : 				{
					"args" : [ 28, 0 ],
					"bgmode" : 0,
					"border" : 0,
					"clickthrough" : 0,
					"enablehscroll" : 0,
					"enablevscroll" : 0,
					"id" : "obj-52",
					"lockeddragscroll" : 0,
					"lockedsize" : 0,
					"maxclass" : "bpatcher",
					"name" : "beat-divisor_ped.maxpat",
					"numinlets" : 1,
					"numoutlets" : 1,
					"offset" : [ -7.0, -6.0 ],
					"outlettype" : [ "bang" ],
					"patching_rect" : [ 370.0, 218.0, 332.0, 93.0 ],
					"presentation" : 1,
					"presentation_rect" : [ 997.0, 420.0, 310.0, 141.0 ],
					"varname" : "beat-divisor[9]",
					"viewvisibility" : 1
				}

			}
, 			{
				"box" : 				{
					"args" : [ 7, 0 ],
					"bgmode" : 0,
					"border" : 0,
					"clickthrough" : 0,
					"enablehscroll" : 0,
					"enablevscroll" : 0,
					"id" : "obj-53",
					"lockeddragscroll" : 0,
					"lockedsize" : 0,
					"maxclass" : "bpatcher",
					"name" : "beat-divisor_ped.maxpat",
					"numinlets" : 1,
					"numoutlets" : 1,
					"offset" : [ -7.0, -6.0 ],
					"outlettype" : [ "bang" ],
					"patching_rect" : [ 370.0, 34.0, 332.0, 93.0 ],
					"presentation" : 1,
					"presentation_rect" : [ 996.0, 106.0, 311.0, 142.0 ],
					"varname" : "beat-divisor[10]",
					"viewvisibility" : 1
				}

			}
, 			{
				"box" : 				{
					"angle" : 0.0,
					"bgcolor" : [ 0.0, 0.0, 0.0, 1.0 ],
					"id" : "obj-55",
					"maxclass" : "panel",
					"mode" : 0,
					"numinlets" : 1,
					"numoutlets" : 0,
					"patching_rect" : [ 347.847808999999984, 879.0, 28.956522, 29.0 ],
					"presentation" : 1,
					"presentation_rect" : [ 987.0, 101.0, 329.0, 478.0 ],
					"proportion" : 0.39,
					"rounded" : 24
				}

			}
, 			{
				"box" : 				{
					"fontface" : 1,
					"fontname" : "Arial",
					"fontsize" : 12.0,
					"id" : "obj-99",
					"maxclass" : "comment",
					"numinlets" : 1,
					"numoutlets" : 0,
					"patching_rect" : [ 68.0, 68.0, 84.0, 20.0 ],
					"presentation" : 1,
					"presentation_rect" : [ 670.0, 264.0, 30.0, 20.0 ],
					"text" : "/10",
					"textcolor" : [ 1.0, 0.831372549019608, 0.0, 1.0 ]
				}

			}
, 			{
				"box" : 				{
					"args" : [ 10, 0 ],
					"bgmode" : 0,
					"border" : 0,
					"clickthrough" : 0,
					"enablehscroll" : 0,
					"enablevscroll" : 0,
					"id" : "obj-101",
					"lockeddragscroll" : 0,
					"lockedsize" : 0,
					"maxclass" : "bpatcher",
					"name" : "beat-divisor_ped.maxpat",
					"numinlets" : 1,
					"numoutlets" : 1,
					"offset" : [ -7.0, -6.0 ],
					"outlettype" : [ "bang" ],
					"patching_rect" : [ 381.0, 437.0, 332.0, 93.0 ],
					"presentation" : 1,
					"presentation_rect" : [ 660.0, 260.0, 316.0, 143.0 ],
					"varname" : "beat-divisor[8]",
					"viewvisibility" : 1
				}

			}
, 			{
				"box" : 				{
					"fontface" : 1,
					"fontname" : "Arial",
					"fontsize" : 12.0,
					"id" : "obj-102",
					"maxclass" : "comment",
					"numinlets" : 1,
					"numoutlets" : 0,
					"patching_rect" : [ 68.0, 68.0, 84.0, 20.0 ],
					"presentation" : 1,
					"presentation_rect" : [ 674.0, 420.0, 36.0, 20.0 ],
					"text" : "/20",
					"textcolor" : [ 1.0, 0.831372549019608, 0.0, 1.0 ]
				}

			}
, 			{
				"box" : 				{
					"fontface" : 1,
					"fontname" : "Arial",
					"fontsize" : 12.0,
					"id" : "obj-103",
					"maxclass" : "comment",
					"numinlets" : 1,
					"numoutlets" : 0,
					"patching_rect" : [ 53.0, 53.0, 84.0, 20.0 ],
					"presentation" : 1,
					"presentation_rect" : [ 674.0, 107.0, 23.0, 20.0 ],
					"text" : "/5",
					"textcolor" : [ 1.0, 0.831372549019608, 0.0, 1.0 ]
				}

			}
, 			{
				"box" : 				{
					"args" : [ 20, 0 ],
					"bgmode" : 0,
					"border" : 0,
					"clickthrough" : 0,
					"enablehscroll" : 0,
					"enablevscroll" : 0,
					"id" : "obj-105",
					"lockeddragscroll" : 0,
					"lockedsize" : 0,
					"maxclass" : "bpatcher",
					"name" : "beat-divisor_ped.maxpat",
					"numinlets" : 1,
					"numoutlets" : 1,
					"offset" : [ -7.0, -6.0 ],
					"outlettype" : [ "bang" ],
					"patching_rect" : [ 355.0, 203.0, 332.0, 93.0 ],
					"presentation" : 1,
					"presentation_rect" : [ 661.0, 418.0, 315.0, 145.0 ],
					"varname" : "beat-divisor[21]",
					"viewvisibility" : 1
				}

			}
, 			{
				"box" : 				{
					"args" : [ 5, 0 ],
					"bgmode" : 0,
					"border" : 0,
					"clickthrough" : 0,
					"enablehscroll" : 0,
					"enablevscroll" : 0,
					"id" : "obj-106",
					"lockeddragscroll" : 0,
					"lockedsize" : 0,
					"maxclass" : "bpatcher",
					"name" : "beat-divisor_ped.maxpat",
					"numinlets" : 1,
					"numoutlets" : 1,
					"offset" : [ -7.0, -6.0 ],
					"outlettype" : [ "bang" ],
					"patching_rect" : [ 355.0, 19.0, 332.0, 93.0 ],
					"presentation" : 1,
					"presentation_rect" : [ 660.0, 106.0, 312.0, 142.0 ],
					"varname" : "beat-divisor[22]",
					"viewvisibility" : 1
				}

			}
, 			{
				"box" : 				{
					"angle" : 0.0,
					"bgcolor" : [ 0.0, 0.0, 0.0, 1.0 ],
					"id" : "obj-107",
					"maxclass" : "panel",
					"mode" : 0,
					"numinlets" : 1,
					"numoutlets" : 0,
					"patching_rect" : [ 332.847808999999984, 864.0, 28.956522, 29.0 ],
					"presentation" : 1,
					"presentation_rect" : [ 652.0, 101.0, 333.0, 472.0 ],
					"proportion" : 0.39,
					"rounded" : 24
				}

			}
, 			{
				"box" : 				{
					"fontface" : 1,
					"fontname" : "Arial",
					"fontsize" : 12.0,
					"id" : "obj-34",
					"maxclass" : "comment",
					"numinlets" : 1,
					"numoutlets" : 0,
					"patching_rect" : [ 53.0, 53.0, 84.0, 20.0 ],
					"presentation" : 1,
					"presentation_rect" : [ 334.0, 263.0, 29.0, 20.0 ],
					"text" : "/6",
					"textcolor" : [ 0.031372549019608, 0.890196078431372, 0.133333333333333, 1.0 ]
				}

			}
, 			{
				"box" : 				{
					"fontface" : 1,
					"fontname" : "Arial",
					"fontsize" : 12.0,
					"id" : "obj-15",
					"maxclass" : "comment",
					"numinlets" : 1,
					"numoutlets" : 0,
					"patching_rect" : [ 68.0, 68.0, 84.0, 20.0 ],
					"presentation" : 1,
					"presentation_rect" : [ 331.0, 578.0, 37.0, 20.0 ],
					"text" : "/24",
					"textcolor" : [ 0.031372549019608, 0.890196078431372, 0.133333333333333, 1.0 ]
				}

			}
, 			{
				"box" : 				{
					"args" : [ 6, 0 ],
					"bgmode" : 0,
					"border" : 0,
					"clickthrough" : 0,
					"enablehscroll" : 0,
					"enablevscroll" : 0,
					"id" : "obj-48",
					"lockeddragscroll" : 0,
					"lockedsize" : 0,
					"maxclass" : "bpatcher",
					"name" : "beat-divisor_ped.maxpat",
					"numinlets" : 1,
					"numoutlets" : 1,
					"offset" : [ -7.0, -6.0 ],
					"outlettype" : [ "bang" ],
					"patching_rect" : [ 366.0, 422.0, 332.0, 93.0 ],
					"presentation" : 1,
					"presentation_rect" : [ 332.0, 259.0, 313.0, 143.0 ],
					"varname" : "beat-divisor[1]",
					"viewvisibility" : 1
				}

			}
, 			{
				"box" : 				{
					"fontface" : 1,
					"fontname" : "Arial",
					"fontsize" : 12.0,
					"id" : "obj-54",
					"maxclass" : "comment",
					"numinlets" : 1,
					"numoutlets" : 0,
					"patching_rect" : [ 53.0, 53.0, 84.0, 20.0 ],
					"presentation" : 1,
					"presentation_rect" : [ 336.0, 419.0, 36.0, 20.0 ],
					"text" : "/12",
					"textcolor" : [ 0.031372549019608, 0.890196078431372, 0.133333333333333, 1.0 ]
				}

			}
, 			{
				"box" : 				{
					"fontface" : 1,
					"fontname" : "Arial",
					"fontsize" : 12.0,
					"id" : "obj-37",
					"maxclass" : "comment",
					"numinlets" : 1,
					"numoutlets" : 0,
					"patching_rect" : [ 38.0, 38.0, 84.0, 20.0 ],
					"presentation" : 1,
					"presentation_rect" : [ 338.0, 107.0, 23.0, 20.0 ],
					"text" : "/3",
					"textcolor" : [ 0.031372549019608, 0.890196078431372, 0.133333333333333, 1.0 ]
				}

			}
, 			{
				"box" : 				{
					"fontface" : 3,
					"fontname" : "Arial",
					"fontsize" : 9.0,
					"id" : "obj-65",
					"linecount" : 3,
					"maxclass" : "comment",
					"numinlets" : 1,
					"numoutlets" : 0,
					"patching_rect" : [ 229.5, 655.0, 90.0, 37.0 ],
					"presentation" : 1,
					"presentation_linecount" : 2,
					"presentation_rect" : [ 488.0, 828.0, 102.0, 27.0 ],
					"text" : "(unmute at individual \nbeat division box)",
					"textcolor" : [ 1.0, 1.0, 1.0, 1.0 ]
				}

			}
, 			{
				"box" : 				{
					"id" : "obj-64",
					"maxclass" : "message",
					"numinlets" : 2,
					"numoutlets" : 1,
					"outlettype" : [ "" ],
					"patching_rect" : [ 1040.0, 778.0, 29.5, 22.0 ],
					"text" : "1."
				}

			}
, 			{
				"box" : 				{
					"bgcolor" : [ 1.0, 1.0, 1.0, 1.0 ],
					"bgfillcolor_angle" : 270.0,
					"bgfillcolor_autogradient" : 0.79,
					"bgfillcolor_color" : [ 0.290196, 0.309804, 0.301961, 1.0 ],
					"bgfillcolor_color1" : [ 1.0, 1.0, 1.0, 1.0 ],
					"bgfillcolor_color2" : [ 1.0, 1.0, 1.0, 1.0 ],
					"bgfillcolor_proportion" : 0.39,
					"bgfillcolor_type" : "gradient",
					"fontname" : "Arial",
					"fontsize" : 13.0,
					"gradient" : 0,
					"id" : "obj-58",
					"maxclass" : "message",
					"numinlets" : 2,
					"numoutlets" : 1,
					"outlettype" : [ "" ],
					"patching_rect" : [ 1042.0, 739.0, 37.0, 23.0 ],
					"presentation" : 1,
					"presentation_rect" : [ 613.0, 4.0, 40.0, 23.0 ],
					"text" : "/start",
					"textcolor" : [ 0.180392, 0.384314, 0.384314, 1.0 ]
				}

			}
, 			{
				"box" : 				{
					"bgmode" : 0,
					"border" : 0,
					"clickthrough" : 0,
					"enablehscroll" : 0,
					"enablevscroll" : 0,
					"id" : "obj-49",
					"lockeddragscroll" : 0,
					"lockedsize" : 0,
					"maxclass" : "bpatcher",
					"name" : "beat-display_ped.maxpat",
					"numinlets" : 0,
					"numoutlets" : 0,
					"offset" : [ 0.0, 0.0 ],
					"patching_rect" : [ 609.0, 863.0, 842.0, 25.0 ],
					"presentation" : 1,
					"presentation_rect" : [ 488.0, 27.0, 186.0, 35.0 ],
					"varname" : "beat-display_ped",
					"viewvisibility" : 1
				}

			}
, 			{
				"box" : 				{
					"id" : "obj-35",
					"maxclass" : "newobj",
					"numinlets" : 2,
					"numoutlets" : 1,
					"outlettype" : [ "" ],
					"patching_rect" : [ 11.0, 512.0, 48.0, 22.0 ],
					"text" : "pipe 20"
				}

			}
, 			{
				"box" : 				{
					"id" : "obj-22",
					"maxclass" : "newobj",
					"numinlets" : 1,
					"numoutlets" : 1,
					"outlettype" : [ "" ],
					"patching_rect" : [ 15.0, 484.0, 100.0, 22.0 ],
					"text" : "loadmess 0"
				}

			}
, 			{
				"box" : 				{
					"id" : "obj-57",
					"maxclass" : "message",
					"numinlets" : 2,
					"numoutlets" : 1,
					"outlettype" : [ "" ],
					"patching_rect" : [ 245.0, 696.0, 29.5, 22.0 ],
					"text" : "1"
				}

			}
, 			{
				"box" : 				{
					"bgcolor" : [ 0.850980392156863, 0.827450980392157, 0.074509803921569, 1.0 ],
					"id" : "obj-33",
					"maxclass" : "button",
					"numinlets" : 1,
					"numoutlets" : 1,
					"outlettype" : [ "bang" ],
					"parameter_enable" : 0,
					"patching_rect" : [ 245.0, 666.0, 24.0, 24.0 ],
					"presentation" : 1,
					"presentation_rect" : [ 431.0, 811.0, 25.0, 25.0 ]
				}

			}
, 			{
				"box" : 				{
					"bgcolor" : [ 0.590269, 0.866667, 0.852296, 1.0 ],
					"bgcolor2" : [ 0.590269, 0.866667, 0.852296, 1.0 ],
					"bgfillcolor_autogradient" : 0.0,
					"bgfillcolor_color" : [ 0.2, 0.2, 0.2, 1 ],
					"bgfillcolor_color1" : [ 0.590269, 0.866667, 0.852296, 1.0 ],
					"bgfillcolor_color2" : [ 0.590269, 0.866667, 0.852296, 1.0 ],
					"bgfillcolor_type" : "gradient",
					"fontname" : "Arial",
					"fontsize" : 12.0,
					"gradient" : 1,
					"id" : "obj-17",
					"linecount" : 6,
					"maxclass" : "message",
					"numinlets" : 2,
					"numoutlets" : 1,
					"outlettype" : [ "" ],
					"patching_rect" : [ 340.0, 587.0, 97.0, 89.0 ],
					"presentation" : 1,
					"presentation_linecount" : 6,
					"presentation_rect" : [ 1243.0, 6.0, 92.0, 89.0 ],
					"text" : ";\rmax preempt 1;\rdsp takeover 1;\rdsp sigvs 128;\rdsp iovs 128;\rdsp sr 48000",
					"textcolor" : [ 0.0, 0.0, 0.0, 1.0 ]
				}

			}
, 			{
				"box" : 				{
					"fontname" : "Arial",
					"fontsize" : 12.0,
					"id" : "obj-23",
					"maxclass" : "newobj",
					"numinlets" : 1,
					"numoutlets" : 0,
					"patching_rect" : [ 245.0, 730.0, 85.0, 22.0 ],
					"text" : "s global_mute"
				}

			}
, 			{
				"box" : 				{
					"fontface" : 3,
					"fontname" : "Arial",
					"fontsize" : 12.0,
					"id" : "obj-151",
					"maxclass" : "comment",
					"numinlets" : 1,
					"numoutlets" : 0,
					"patching_rect" : [ 214.5, 640.0, 115.0, 20.0 ],
					"presentation" : 1,
					"presentation_rect" : [ 470.0, 813.0, 118.0, 20.0 ],
					"text" : "global mute",
					"textcolor" : [ 1.0, 1.0, 1.0, 1.0 ]
				}

			}
, 			{
				"box" : 				{
					"id" : "obj-88",
					"maxclass" : "message",
					"numinlets" : 2,
					"numoutlets" : 1,
					"outlettype" : [ "" ],
					"patching_rect" : [ 107.0, 596.0, 29.5, 22.0 ],
					"text" : "1"
				}

			}
, 			{
				"box" : 				{
					"fontface" : 1,
					"fontname" : "Arial",
					"fontsize" : 12.0,
					"id" : "obj-81",
					"maxclass" : "comment",
					"numinlets" : 1,
					"numoutlets" : 0,
					"patching_rect" : [ 68.0, 68.0, 84.0, 20.0 ],
					"presentation" : 1,
					"presentation_rect" : [ 7.0, 730.0, 30.0, 20.0 ],
					"text" : "/16",
					"textcolor" : [ 0.890196078431372, 0.4, 0.031372549019608, 1.0 ]
				}

			}
, 			{
				"box" : 				{
					"fontface" : 1,
					"fontname" : "Arial",
					"fontsize" : 12.0,
					"id" : "obj-80",
					"maxclass" : "comment",
					"numinlets" : 1,
					"numoutlets" : 0,
					"patching_rect" : [ 53.0, 53.0, 84.0, 20.0 ],
					"presentation" : 1,
					"presentation_rect" : [ 11.0, 573.0, 23.0, 20.0 ],
					"text" : "/8",
					"textcolor" : [ 0.890196078431372, 0.4, 0.031372549019608, 1.0 ]
				}

			}
, 			{
				"box" : 				{
					"fontface" : 1,
					"fontname" : "Arial",
					"fontsize" : 12.0,
					"id" : "obj-73",
					"maxclass" : "comment",
					"numinlets" : 1,
					"numoutlets" : 0,
					"patching_rect" : [ 38.0, 38.0, 84.0, 20.0 ],
					"presentation" : 1,
					"presentation_rect" : [ 12.0, 414.0, 23.0, 20.0 ],
					"text" : "/4",
					"textcolor" : [ 0.890196078431372, 0.4, 0.031372549019608, 1.0 ]
				}

			}
, 			{
				"box" : 				{
					"fontface" : 1,
					"fontname" : "Arial",
					"fontsize" : 12.0,
					"id" : "obj-66",
					"maxclass" : "comment",
					"numinlets" : 1,
					"numoutlets" : 0,
					"patching_rect" : [ 23.0, 23.0, 84.0, 20.0 ],
					"presentation" : 1,
					"presentation_rect" : [ 12.0, 252.0, 23.0, 20.0 ],
					"text" : "/2",
					"textcolor" : [ 0.890196078431372, 0.4, 0.031372549019608, 1.0 ]
				}

			}
, 			{
				"box" : 				{
					"id" : "obj-9",
					"maxclass" : "newobj",
					"numinlets" : 1,
					"numoutlets" : 1,
					"outlettype" : [ "signal" ],
					"patching_rect" : [ 1185.0, 344.0, 119.0, 22.0 ],
					"text" : "receive~ dry_audioR"
				}

			}
, 			{
				"box" : 				{
					"id" : "obj-30",
					"maxclass" : "newobj",
					"numinlets" : 1,
					"numoutlets" : 1,
					"outlettype" : [ "signal" ],
					"patching_rect" : [ 1060.0, 344.0, 117.0, 22.0 ],
					"text" : "receive~ dry_audioL"
				}

			}
, 			{
				"box" : 				{
					"id" : "obj-76",
					"maxclass" : "message",
					"numinlets" : 2,
					"numoutlets" : 1,
					"outlettype" : [ "" ],
					"patching_rect" : [ 992.0, 774.0, 29.5, 22.0 ],
					"text" : "0."
				}

			}
, 			{
				"box" : 				{
					"id" : "obj-77",
					"maxclass" : "newobj",
					"numinlets" : 1,
					"numoutlets" : 0,
					"patching_rect" : [ 946.0, 835.5, 94.0, 22.0 ],
					"text" : "send~ bd_ramp"
				}

			}
, 			{
				"box" : 				{
					"id" : "obj-78",
					"maxclass" : "newobj",
					"numinlets" : 2,
					"numoutlets" : 1,
					"outlettype" : [ "float" ],
					"patching_rect" : [ 946.0, 774.0, 41.0, 22.0 ],
					"text" : "/ 60."
				}

			}
, 			{
				"box" : 				{
					"id" : "obj-79",
					"maxclass" : "newobj",
					"numinlets" : 2,
					"numoutlets" : 1,
					"outlettype" : [ "signal" ],
					"patching_rect" : [ 946.0, 805.0, 54.0, 22.0 ],
					"text" : "phasor~"
				}

			}
, 			{
				"box" : 				{
					"fontface" : 0,
					"fontname" : "Arial",
					"fontsize" : 9.0,
					"id" : "obj-75",
					"maxclass" : "newobj",
					"numinlets" : 1,
					"numoutlets" : 1,
					"outlettype" : [ "bang" ],
					"patching_rect" : [ 24.0, 540.0, 48.0, 19.0 ],
					"text" : "loadbang"
				}

			}
, 			{
				"box" : 				{
					"fontname" : "Arial",
					"fontsize" : 12.0,
					"id" : "obj-74",
					"maxclass" : "message",
					"numinlets" : 2,
					"numoutlets" : 1,
					"outlettype" : [ "" ],
					"patching_rect" : [ 24.0, 600.0, 29.5, 22.0 ],
					"text" : "1"
				}

			}
, 			{
				"box" : 				{
					"fontface" : 1,
					"fontname" : "Arial",
					"fontsize" : 18.0,
					"id" : "obj-70",
					"maxclass" : "newobj",
					"numinlets" : 0,
					"numoutlets" : 0,
					"patcher" : 					{
						"fileversion" : 1,
						"appversion" : 						{
							"major" : 8,
							"minor" : 6,
							"revision" : 5,
							"architecture" : "x64",
							"modernui" : 1
						}
,
						"classnamespace" : "box",
						"rect" : [ 406.0, 252.0, 1008.0, 493.0 ],
						"bglocked" : 0,
						"openinpresentation" : 0,
						"default_fontsize" : 12.0,
						"default_fontface" : 0,
						"default_fontname" : "Arial",
						"gridonopen" : 1,
						"gridsize" : [ 5.0, 5.0 ],
						"gridsnaponopen" : 1,
						"objectsnaponopen" : 1,
						"statusbarvisible" : 2,
						"toolbarvisible" : 1,
						"lefttoolbarpinned" : 0,
						"toptoolbarpinned" : 0,
						"righttoolbarpinned" : 0,
						"bottomtoolbarpinned" : 0,
						"toolbars_unpinned_last_save" : 0,
						"tallnewobj" : 0,
						"boxanimatetime" : 200,
						"enablehscroll" : 1,
						"enablevscroll" : 1,
						"devicewidth" : 0.0,
						"description" : "",
						"digest" : "",
						"tags" : "",
						"style" : "",
						"subpatcher_template" : "",
						"assistshowspatchername" : 0,
						"boxes" : [ 							{
								"box" : 								{
									"fontface" : 1,
									"fontname" : "Arial",
									"fontsize" : 22.0,
									"id" : "obj-3",
									"maxclass" : "comment",
									"numinlets" : 1,
									"numoutlets" : 0,
									"patching_rect" : [ 10.0, 10.0, 429.0, 31.0 ],
									"text" : "beat-slicer instructions:"
								}

							}
, 							{
								"box" : 								{
									"fontname" : "Arial",
									"fontsize" : 12.0,
									"id" : "obj-2",
									"linecount" : 32,
									"maxclass" : "comment",
									"numinlets" : 1,
									"numoutlets" : 0,
									"patching_rect" : [ 10.0, 45.0, 1010.0, 435.0 ],
									"text" : "This patch is an overview of divisions in a beat (tactus).  \n\nYou'll notice that there are 23 layers, which include various divisions of the MAIN BEAT (tactus) \n\nTo play, first turn patch on by clicking on the [audio off] button and/or making sure that it reads [audio on].  You'll notice that the various sequencers begin advancing through their cycles.\n\nEditing clicks on a given layer:\n\n1. Make sure the level is unmuted by un-checking the mute toggle (it may already be unmuted).\n2. Click on the various green presets (located at the bottom-right) to hear the way in which the various divisions can overlay each other.\n3. Click on any array of sliders to enable some notes (they are either on or off; dark red squares mean \"on\".  To turn all notes on, click on the pink box and click-drag/enter \"1\".\n* You should hear some clicks, at a given (fairly arbitrary) frequency.\n4. To change the frequency for each click, you can click-drag on the gray sliders. To edit all frequencies at once, click-drag (or enter a number into) the gray number box for that level.\n5. On other layers, try combining varous on and off steps, and editing the values described above to gain an interesting polyrhythm for the duration of the phrase.\n\nGlobal controls:\n\n- global steps on/off: Enable/disable all steps at once.  Only do this if you don't mind discarding all your previously edited steps.\n- global mute: Mutes all layers of beat-slicer, but allows sequencer to remain cycling.\n- global frequency: Change frequency for all layers at once.  Only edit this if you don't mind discarding previously edited frequencies.\n- new (immediate) tactus/BPM: Enter in a new bpm for the beat/phrase.\n- setup_reverb: This opens up an area with various controls for adding reverb to the overall mix of the layers.\n- stop: Stops the phrase from playing\n\nglobal preset storage/recall:\n\nIf you'd like to store something (a global snapshot of) that you've edited, you can place it into a preset slot.\n\n1. Hold control+option.  You'll notice that the numbers of the preset slots turn red.  This means that storage mode is active. \n2. While holding those keys, click on a given number to store the current state into a recallable snapshot.\n3. Resume editing until you have another state you like the sound of, and repeat the above steps as necessary.\n4. To recall a given preset, simply click the green numbers (no keys enabled)."
								}

							}
 ],
						"lines" : [  ]
					}
,
					"patching_rect" : [ 90.5, 760.0, 133.0, 29.0 ],
					"presentation" : 1,
					"presentation_rect" : [ 713.0, 26.0, 128.0, 29.0 ],
					"saved_object_attributes" : 					{
						"description" : "",
						"digest" : "",
						"globalpatchername" : "",
						"tags" : ""
					}
,
					"text" : "p instructions"
				}

			}
, 			{
				"box" : 				{
					"fontname" : "Arial",
					"fontsize" : 12.0,
					"id" : "obj-67",
					"linecount" : 2,
					"maxclass" : "newobj",
					"numinlets" : 0,
					"numoutlets" : 0,
					"patching_rect" : [ 90.5, 799.0, 93.0, 35.0 ],
					"presentation" : 1,
					"presentation_rect" : [ 713.0, 3.0, 96.0, 22.0 ],
					"text" : "\"Tempo Tracker\""
				}

			}
, 			{
				"box" : 				{
					"bgcolor" : [ 0.109804, 0.133333, 0.141176, 0.0 ],
					"blinkcolor" : [ 1.0, 0.89, 0.09, 1.0 ],
					"blinktime" : 50,
					"id" : "obj-71",
					"maxclass" : "button",
					"numinlets" : 1,
					"numoutlets" : 1,
					"outlettype" : [ "bang" ],
					"outlinecolor" : [ 1.0, 0.89, 0.09, 1.0 ],
					"parameter_enable" : 0,
					"patching_rect" : [ 247.0, 614.0, 20.0, 20.0 ],
					"presentation" : 1,
					"presentation_rect" : [ 451.0, 27.0, 35.0, 35.0 ]
				}

			}
, 			{
				"box" : 				{
					"fontname" : "Arial",
					"fontsize" : 12.0,
					"id" : "obj-47",
					"maxclass" : "newobj",
					"numinlets" : 0,
					"numoutlets" : 1,
					"outlettype" : [ "" ],
					"patching_rect" : [ 1174.0, 657.0, 67.0, 22.0 ],
					"text" : "r settempo"
				}

			}
, 			{
				"box" : 				{
					"fontname" : "Arial",
					"fontsize" : 9.0,
					"hidden" : 1,
					"id" : "obj-68",
					"maxclass" : "newobj",
					"numinlets" : 1,
					"numoutlets" : 1,
					"outlettype" : [ "" ],
					"patching_rect" : [ 752.0, 632.0, 57.0, 19.0 ],
					"text" : "loadmess 1"
				}

			}
, 			{
				"box" : 				{
					"bgcolor" : [ 1.0, 1.0, 1.0, 1.0 ],
					"bgfillcolor_angle" : 270.0,
					"bgfillcolor_autogradient" : 0.79,
					"bgfillcolor_color" : [ 0.290196, 0.309804, 0.301961, 1.0 ],
					"bgfillcolor_color1" : [ 1.0, 1.0, 1.0, 1.0 ],
					"bgfillcolor_color2" : [ 1.0, 1.0, 1.0, 1.0 ],
					"bgfillcolor_proportion" : 0.39,
					"bgfillcolor_type" : "gradient",
					"fontname" : "Arial",
					"fontsize" : 12.0,
					"gradient" : 0,
					"id" : "obj-10",
					"maxclass" : "message",
					"numinlets" : 2,
					"numoutlets" : 1,
					"outlettype" : [ "" ],
					"patching_rect" : [ 1119.0, 607.0, 35.0, 22.0 ],
					"presentation" : 1,
					"presentation_rect" : [ 470.5, 72.0, 35.0, 22.0 ],
					"text" : "40",
					"textcolor" : [ 0.180392, 0.384314, 0.384314, 1.0 ]
				}

			}
, 			{
				"box" : 				{
					"bgcolor" : [ 1.0, 1.0, 1.0, 1.0 ],
					"bgfillcolor_angle" : 270.0,
					"bgfillcolor_autogradient" : 0.79,
					"bgfillcolor_color" : [ 0.290196, 0.309804, 0.301961, 1.0 ],
					"bgfillcolor_color1" : [ 1.0, 1.0, 1.0, 1.0 ],
					"bgfillcolor_color2" : [ 1.0, 1.0, 1.0, 1.0 ],
					"bgfillcolor_proportion" : 0.39,
					"bgfillcolor_type" : "gradient",
					"fontname" : "Arial",
					"fontsize" : 12.0,
					"gradient" : 0,
					"id" : "obj-3",
					"maxclass" : "message",
					"numinlets" : 2,
					"numoutlets" : 1,
					"outlettype" : [ "" ],
					"patching_rect" : [ 1248.0, 607.0, 29.5, 22.0 ],
					"presentation" : 1,
					"presentation_rect" : [ 597.0, 72.0, 32.0, 22.0 ],
					"text" : "120",
					"textcolor" : [ 0.180392, 0.384314, 0.384314, 1.0 ]
				}

			}
, 			{
				"box" : 				{
					"bgcolor" : [ 1.0, 1.0, 1.0, 1.0 ],
					"bgfillcolor_angle" : 270.0,
					"bgfillcolor_autogradient" : 0.79,
					"bgfillcolor_color" : [ 0.290196, 0.309804, 0.301961, 1.0 ],
					"bgfillcolor_color1" : [ 1.0, 1.0, 1.0, 1.0 ],
					"bgfillcolor_color2" : [ 1.0, 1.0, 1.0, 1.0 ],
					"bgfillcolor_proportion" : 0.39,
					"bgfillcolor_type" : "gradient",
					"fontname" : "Arial",
					"fontsize" : 12.0,
					"gradient" : 0,
					"id" : "obj-1743",
					"maxclass" : "message",
					"numinlets" : 2,
					"numoutlets" : 1,
					"outlettype" : [ "" ],
					"patching_rect" : [ 1159.0, 607.0, 35.0, 22.0 ],
					"presentation" : 1,
					"presentation_rect" : [ 515.0, 72.0, 35.0, 22.0 ],
					"text" : "60",
					"textcolor" : [ 0.180392, 0.384314, 0.384314, 1.0 ]
				}

			}
, 			{
				"box" : 				{
					"bgcolor" : [ 1.0, 1.0, 1.0, 1.0 ],
					"bgfillcolor_angle" : 270.0,
					"bgfillcolor_autogradient" : 0.79,
					"bgfillcolor_color" : [ 0.290196, 0.309804, 0.301961, 1.0 ],
					"bgfillcolor_color1" : [ 1.0, 1.0, 1.0, 1.0 ],
					"bgfillcolor_color2" : [ 1.0, 1.0, 1.0, 1.0 ],
					"bgfillcolor_proportion" : 0.39,
					"bgfillcolor_type" : "gradient",
					"fontname" : "Arial",
					"fontsize" : 12.0,
					"gradient" : 0,
					"id" : "obj-1741",
					"maxclass" : "message",
					"numinlets" : 2,
					"numoutlets" : 1,
					"outlettype" : [ "" ],
					"patching_rect" : [ 1286.0, 607.0, 29.5, 22.0 ],
					"presentation" : 1,
					"presentation_rect" : [ 635.0, 72.0, 43.0, 22.0 ],
					"text" : "240",
					"textcolor" : [ 0.180392, 0.384314, 0.384314, 1.0 ]
				}

			}
, 			{
				"box" : 				{
					"bgcolor" : [ 1.0, 1.0, 1.0, 1.0 ],
					"bgfillcolor_angle" : 270.0,
					"bgfillcolor_autogradient" : 0.79,
					"bgfillcolor_color" : [ 0.290196, 0.309804, 0.301961, 1.0 ],
					"bgfillcolor_color1" : [ 1.0, 1.0, 1.0, 1.0 ],
					"bgfillcolor_color2" : [ 1.0, 1.0, 1.0, 1.0 ],
					"bgfillcolor_proportion" : 0.39,
					"bgfillcolor_type" : "gradient",
					"fontname" : "Arial",
					"fontsize" : 12.0,
					"gradient" : 0,
					"id" : "obj-61",
					"maxclass" : "message",
					"numinlets" : 2,
					"numoutlets" : 1,
					"outlettype" : [ "" ],
					"patching_rect" : [ 1203.0, 607.0, 29.5, 22.0 ],
					"presentation" : 1,
					"presentation_rect" : [ 555.0, 72.0, 35.0, 22.0 ],
					"text" : "90",
					"textcolor" : [ 0.180392, 0.384314, 0.384314, 1.0 ]
				}

			}
, 			{
				"box" : 				{
					"fontname" : "Arial",
					"fontsize" : 12.0,
					"id" : "obj-56",
					"maxclass" : "message",
					"numinlets" : 2,
					"numoutlets" : 1,
					"outlettype" : [ "" ],
					"patching_rect" : [ 840.0, 596.0, 64.0, 22.0 ],
					"text" : "readagain"
				}

			}
, 			{
				"box" : 				{
					"fontname" : "Arial",
					"fontsize" : 10.0,
					"id" : "obj-59",
					"maxclass" : "newobj",
					"numinlets" : 1,
					"numoutlets" : 1,
					"outlettype" : [ "" ],
					"patching_rect" : [ 688.0, 600.0, 94.0, 20.0 ],
					"text" : "prepend /pstoreget",
					"varname" : "divided-steps[1]"
				}

			}
, 			{
				"box" : 				{
					"fontname" : "Arial",
					"fontsize" : 12.0,
					"id" : "obj-60",
					"maxclass" : "message",
					"numinlets" : 2,
					"numoutlets" : 1,
					"outlettype" : [ "" ],
					"patching_rect" : [ 840.0, 576.0, 65.0, 22.0 ],
					"text" : "writeagain"
				}

			}
, 			{
				"box" : 				{
					"autorestore" : "beats_sliced.xml",
					"fontname" : "Arial",
					"fontsize" : 10.0,
					"id" : "obj-62",
					"maxclass" : "newobj",
					"numinlets" : 1,
					"numoutlets" : 1,
					"outlettype" : [ "" ],
					"patching_rect" : [ 688.0, 580.0, 141.0, 20.0 ],
					"saved_object_attributes" : 					{
						"client_rect" : [ 10, 59, 650, 299 ],
						"parameter_enable" : 0,
						"parameter_mappable" : 0,
						"storage_rect" : [ 10, 59, 650, 299 ]
					}
,
					"text" : "pattrstorage beats_sliced.xml",
					"varname" : "beats_sliced.xml"
				}

			}
, 			{
				"box" : 				{
					"args" : [ "beats_sliced.xml", 12 ],
					"bgmode" : 0,
					"border" : 0,
					"clickthrough" : 0,
					"enablehscroll" : 0,
					"enablevscroll" : 0,
					"id" : "obj-63",
					"lockeddragscroll" : 0,
					"lockedsize" : 0,
					"maxclass" : "bpatcher",
					"name" : "pstore-simple-storage_ped.maxpat",
					"numinlets" : 1,
					"numoutlets" : 2,
					"offset" : [ 0.69639, 0.727707 ],
					"outlettype" : [ "read", "" ],
					"patching_rect" : [ 688.0, 512.0, 352.0, 56.0 ],
					"presentation" : 1,
					"presentation_rect" : [ 881.0, 13.0, 352.0, 56.0 ],
					"viewvisibility" : 1
				}

			}
, 			{
				"box" : 				{
					"args" : [ "beat-slicer", "Edmund Campion and Jeff Lubow", "Tactus demo", 6666, "0.165 0.196 0.267 1." ],
					"bgmode" : 0,
					"border" : 0,
					"clickthrough" : 0,
					"enablehscroll" : 0,
					"enablevscroll" : 0,
					"id" : "obj-24",
					"lockeddragscroll" : 0,
					"lockedsize" : 0,
					"maxclass" : "bpatcher",
					"name" : "badge2_ped.maxpat",
					"numinlets" : 0,
					"numoutlets" : 0,
					"offset" : [ 0.0, 0.0 ],
					"patching_rect" : [ 659.0, 676.0, 254.0, 68.0 ],
					"presentation" : 1,
					"presentation_rect" : [ 1320.0, 760.0, 221.0, 60.0 ],
					"viewvisibility" : 1
				}

			}
, 			{
				"box" : 				{
					"fontface" : 1,
					"fontname" : "Arial",
					"fontsize" : 18.0,
					"id" : "obj-31",
					"maxclass" : "comment",
					"numinlets" : 1,
					"numoutlets" : 0,
					"patching_rect" : [ 8.0, 8.0, 115.0, 27.0 ],
					"presentation" : 1,
					"presentation_rect" : [ 7.0, 101.0, 111.0, 27.0 ],
					"text" : "MAIN BEAT",
					"textcolor" : [ 0.890196078431372, 0.4, 0.031372549019608, 1.0 ]
				}

			}
, 			{
				"box" : 				{
					"args" : [ 127 ],
					"bgmode" : 0,
					"border" : 0,
					"clickthrough" : 0,
					"enablehscroll" : 0,
					"enablevscroll" : 0,
					"id" : "obj-51",
					"lockeddragscroll" : 0,
					"lockedsize" : 0,
					"maxclass" : "bpatcher",
					"name" : "simple-stereo-gain~_ped.maxpat",
					"numinlets" : 3,
					"numoutlets" : 2,
					"offset" : [ 0.0, 0.0 ],
					"outlettype" : [ "signal", "signal" ],
					"patching_rect" : [ 1060.0, 385.0, 100.0, 192.0 ],
					"presentation" : 1,
					"presentation_rect" : [ 326.0, 722.0, 100.0, 181.0 ],
					"viewvisibility" : 1
				}

			}
, 			{
				"box" : 				{
					"args" : [ "Beat Slicer", "A study in beat divisions", "0.415 0.492 0.673 1." ],
					"bgmode" : 0,
					"border" : 0,
					"clickthrough" : 0,
					"enablehscroll" : 0,
					"enablevscroll" : 0,
					"id" : "obj-25",
					"lockeddragscroll" : 1,
					"lockedsize" : 0,
					"maxclass" : "bpatcher",
					"name" : "banner_ped.maxpat",
					"numinlets" : 0,
					"numoutlets" : 0,
					"offset" : [ -18.0, -68.0 ],
					"patching_rect" : [ 360.0, 676.0, 294.0, 76.0 ],
					"presentation" : 1,
					"presentation_rect" : [ 13.0, 18.0, 328.0, 76.0 ],
					"prototypename" : "cnmat_banner",
					"viewvisibility" : 1
				}

			}
, 			{
				"box" : 				{
					"fontface" : 2,
					"fontname" : "Arial",
					"fontsize" : 18.0,
					"id" : "obj-50",
					"linecount" : 2,
					"maxclass" : "comment",
					"numinlets" : 1,
					"numoutlets" : 0,
					"patching_rect" : [ 1154.0, 709.0, 107.0, 47.0 ],
					"presentation" : 1,
					"presentation_rect" : [ 363.0, 0.0, 191.0, 27.0 ],
					"text" : "Beats Per Minute BPM",
					"textcolor" : [ 1.0, 1.0, 1.0, 1.0 ]
				}

			}
, 			{
				"box" : 				{
					"args" : [ 1, 1 ],
					"bgmode" : 0,
					"border" : 1,
					"clickthrough" : 0,
					"enablehscroll" : 0,
					"enablevscroll" : 0,
					"id" : "obj-32",
					"lockeddragscroll" : 0,
					"lockedsize" : 0,
					"maxclass" : "bpatcher",
					"name" : "beat-divisor_ped.maxpat",
					"numinlets" : 1,
					"numoutlets" : 1,
					"offset" : [ -7.0, -6.0 ],
					"outlettype" : [ "bang" ],
					"patching_rect" : [ 4.0, 4.0, 332.0, 93.0 ],
					"presentation" : 1,
					"presentation_rect" : [ 8.0, 106.0, 317.0, 142.0 ],
					"varname" : "beat-divisor[5]",
					"viewvisibility" : 1
				}

			}
, 			{
				"box" : 				{
					"fontname" : "Arial",
					"fontsize" : 12.0,
					"id" : "obj-27",
					"maxclass" : "newobj",
					"numinlets" : 1,
					"numoutlets" : 0,
					"patching_rect" : [ 24.0, 696.0, 82.0, 22.0 ],
					"text" : "s global_tone"
				}

			}
, 			{
				"box" : 				{
					"fontname" : "Arial",
					"fontsize" : 12.0,
					"id" : "obj-26",
					"maxclass" : "newobj",
					"numinlets" : 1,
					"numoutlets" : 0,
					"patching_rect" : [ 120.0, 696.0, 85.0, 22.0 ],
					"text" : "s global_onoff"
				}

			}
, 			{
				"box" : 				{
					"fontface" : 0,
					"fontname" : "Arial",
					"fontsize" : 9.0,
					"id" : "obj-20",
					"maxclass" : "newobj",
					"numinlets" : 2,
					"numoutlets" : 1,
					"outlettype" : [ "bang" ],
					"patching_rect" : [ 24.0, 576.0, 40.0, 19.0 ],
					"text" : "del 200"
				}

			}
, 			{
				"box" : 				{
					"args" : [ 24, 0 ],
					"bgmode" : 0,
					"border" : 0,
					"clickthrough" : 0,
					"enablehscroll" : 0,
					"enablevscroll" : 0,
					"id" : "obj-8",
					"lockeddragscroll" : 0,
					"lockedsize" : 0,
					"maxclass" : "bpatcher",
					"name" : "beat-divisor_ped.maxpat",
					"numinlets" : 1,
					"numoutlets" : 1,
					"offset" : [ -7.0, -6.0 ],
					"outlettype" : [ "bang" ],
					"patching_rect" : [ 340.0, 284.0, 332.0, 93.0 ],
					"presentation" : 1,
					"presentation_rect" : [ 333.0, 574.0, 312.0, 143.0 ],
					"varname" : "beat-divisor[11]",
					"viewvisibility" : 1
				}

			}
, 			{
				"box" : 				{
					"args" : [ 12, 0 ],
					"bgmode" : 0,
					"border" : 0,
					"clickthrough" : 0,
					"enablehscroll" : 0,
					"enablevscroll" : 0,
					"id" : "obj-11",
					"lockeddragscroll" : 0,
					"lockedsize" : 0,
					"maxclass" : "bpatcher",
					"name" : "beat-divisor_ped.maxpat",
					"numinlets" : 1,
					"numoutlets" : 1,
					"offset" : [ -7.0, -6.0 ],
					"outlettype" : [ "bang" ],
					"patching_rect" : [ 340.0, 188.0, 332.0, 93.0 ],
					"presentation" : 1,
					"presentation_rect" : [ 333.0, 417.0, 312.0, 145.0 ],
					"varname" : "beat-divisor[12]",
					"viewvisibility" : 1
				}

			}
, 			{
				"box" : 				{
					"args" : [ 3, 0 ],
					"bgmode" : 0,
					"border" : 0,
					"clickthrough" : 0,
					"enablehscroll" : 0,
					"enablevscroll" : 0,
					"id" : "obj-13",
					"lockeddragscroll" : 0,
					"lockedsize" : 0,
					"maxclass" : "bpatcher",
					"name" : "beat-divisor_ped.maxpat",
					"numinlets" : 1,
					"numoutlets" : 1,
					"offset" : [ -7.0, -6.0 ],
					"outlettype" : [ "bang" ],
					"patching_rect" : [ 340.0, 4.0, 332.0, 93.0 ],
					"presentation" : 1,
					"presentation_rect" : [ 332.0, 106.0, 313.0, 142.0 ],
					"varname" : "beat-divisor[14]",
					"viewvisibility" : 1
				}

			}
, 			{
				"box" : 				{
					"args" : [ 16, 0 ],
					"bgmode" : 0,
					"border" : 0,
					"clickthrough" : 0,
					"enablehscroll" : 0,
					"enablevscroll" : 0,
					"id" : "obj-7",
					"lockeddragscroll" : 0,
					"lockedsize" : 0,
					"maxclass" : "bpatcher",
					"name" : "beat-divisor_ped.maxpat",
					"numinlets" : 1,
					"numoutlets" : 1,
					"offset" : [ -7.0, -6.0 ],
					"outlettype" : [ "bang" ],
					"patching_rect" : [ 4.0, 376.0, 332.0, 93.0 ],
					"presentation" : 1,
					"presentation_rect" : [ 9.0, 730.0, 324.0, 144.0 ],
					"varname" : "beat-divisor[15]",
					"viewvisibility" : 1
				}

			}
, 			{
				"box" : 				{
					"args" : [ 8, 0 ],
					"bgmode" : 0,
					"border" : 1,
					"clickthrough" : 0,
					"enablehscroll" : 0,
					"enablevscroll" : 0,
					"id" : "obj-5",
					"lockeddragscroll" : 0,
					"lockedsize" : 0,
					"maxclass" : "bpatcher",
					"name" : "beat-divisor_ped.maxpat",
					"numinlets" : 1,
					"numoutlets" : 1,
					"offset" : [ -7.0, -6.0 ],
					"outlettype" : [ "bang" ],
					"patching_rect" : [ 4.0, 280.0, 332.0, 93.0 ],
					"presentation" : 1,
					"presentation_rect" : [ 8.0, 573.0, 321.0, 145.0 ],
					"varname" : "beat-divisor[16]",
					"viewvisibility" : 1
				}

			}
, 			{
				"box" : 				{
					"args" : [ 4, 0 ],
					"bgmode" : 0,
					"border" : 1,
					"clickthrough" : 0,
					"enablehscroll" : 0,
					"enablevscroll" : 0,
					"id" : "obj-4",
					"lockeddragscroll" : 0,
					"lockedsize" : 0,
					"maxclass" : "bpatcher",
					"name" : "beat-divisor_ped.maxpat",
					"numinlets" : 1,
					"numoutlets" : 1,
					"offset" : [ -7.0, -6.0 ],
					"outlettype" : [ "bang" ],
					"patching_rect" : [ 4.0, 188.0, 332.0, 93.0 ],
					"presentation" : 1,
					"presentation_rect" : [ 8.0, 417.0, 321.0, 143.0 ],
					"varname" : "beat-divisor[17]",
					"viewvisibility" : 1
				}

			}
, 			{
				"box" : 				{
					"args" : [ 2, 0 ],
					"bgmode" : 0,
					"border" : 1,
					"clickthrough" : 0,
					"enablehscroll" : 0,
					"enablevscroll" : 0,
					"id" : "obj-2",
					"lockeddragscroll" : 0,
					"lockedsize" : 0,
					"maxclass" : "bpatcher",
					"name" : "beat-divisor_ped.maxpat",
					"numinlets" : 1,
					"numoutlets" : 1,
					"offset" : [ -7.0, -6.0 ],
					"outlettype" : [ "bang" ],
					"patching_rect" : [ 4.0, 96.0, 332.0, 93.0 ],
					"presentation" : 1,
					"presentation_rect" : [ 12.0, 259.0, 321.0, 143.0 ],
					"varname" : "beat-divisor[18]",
					"viewvisibility" : 1
				}

			}
, 			{
				"box" : 				{
					"fontface" : 3,
					"fontname" : "Arial",
					"fontsize" : 12.0,
					"id" : "obj-150",
					"linecount" : 2,
					"maxclass" : "comment",
					"numinlets" : 1,
					"numoutlets" : 0,
					"patching_rect" : [ 120.0, 640.0, 83.0, 33.0 ],
					"presentation" : 1,
					"presentation_rect" : [ 470.0, 780.0, 118.0, 20.0 ],
					"text" : "global steps on/off",
					"textcolor" : [ 1.0, 1.0, 1.0, 1.0 ]
				}

			}
, 			{
				"box" : 				{
					"bgcolor" : [ 0.384314, 0.156863, 0.282353, 1.0 ],
					"checkedcolor" : [ 1.0, 1.0, 1.0, 1.0 ],
					"id" : "obj-148",
					"maxclass" : "toggle",
					"numinlets" : 1,
					"numoutlets" : 1,
					"outlettype" : [ "int" ],
					"parameter_enable" : 0,
					"patching_rect" : [ 120.0, 666.0, 24.0, 24.0 ],
					"presentation" : 1,
					"presentation_rect" : [ 431.0, 778.0, 25.0, 25.0 ],
					"uncheckedcolor" : [ 0.0, 0.0, 0.0, 0.0 ]
				}

			}
, 			{
				"box" : 				{
					"fontface" : 3,
					"fontname" : "Arial",
					"fontsize" : 12.0,
					"id" : "obj-147",
					"linecount" : 2,
					"maxclass" : "comment",
					"numinlets" : 1,
					"numoutlets" : 0,
					"patching_rect" : [ 24.0, 640.0, 96.0, 33.0 ],
					"presentation" : 1,
					"presentation_rect" : [ 470.0, 742.0, 132.0, 20.0 ],
					"text" : "global beat pitch 1-24",
					"textcolor" : [ 1.0, 1.0, 1.0, 1.0 ]
				}

			}
, 			{
				"box" : 				{
					"bgcolor" : [ 0.537255, 0.537255, 0.537255, 1.0 ],
					"fontname" : "Arial",
					"fontsize" : 12.0,
					"htricolor" : [ 0.87, 0.82, 0.24, 1.0 ],
					"id" : "obj-146",
					"maxclass" : "number",
					"maximum" : 24,
					"minimum" : 1,
					"numinlets" : 1,
					"numoutlets" : 2,
					"outlettype" : [ "", "bang" ],
					"parameter_enable" : 0,
					"patching_rect" : [ 24.0, 666.0, 50.0, 22.0 ],
					"presentation" : 1,
					"presentation_rect" : [ 431.0, 742.0, 32.0, 22.0 ],
					"textcolor" : [ 0.0, 0.0, 0.0, 1.0 ],
					"tricolor" : [ 0.75, 0.75, 0.75, 1.0 ]
				}

			}
, 			{
				"box" : 				{
					"bgcolor" : [ 0.0, 0.0, 0.0, 1.0 ],
					"fontname" : "Arial",
					"fontsize" : 24.0,
					"format" : 6,
					"hint" : "immediate BPM",
					"htricolor" : [ 0.87, 0.82, 0.24, 1.0 ],
					"id" : "obj-1745",
					"maxclass" : "flonum",
					"numinlets" : 1,
					"numoutlets" : 2,
					"outlettype" : [ "", "bang" ],
					"parameter_enable" : 0,
					"patching_rect" : [ 946.0, 676.0, 130.0, 35.0 ],
					"presentation" : 1,
					"presentation_rect" : [ 364.0, 27.0, 75.0, 35.0 ],
					"textcolor" : [ 1.0, 1.0, 1.0, 1.0 ],
					"tricolor" : [ 0.75, 0.75, 0.75, 1.0 ],
					"triscale" : 0.9
				}

			}
, 			{
				"box" : 				{
					"bgcolor" : [ 1.0, 1.0, 1.0, 1.0 ],
					"bgfillcolor_angle" : 270.0,
					"bgfillcolor_autogradient" : 0.79,
					"bgfillcolor_color" : [ 0.290196, 0.309804, 0.301961, 1.0 ],
					"bgfillcolor_color1" : [ 1.0, 1.0, 1.0, 1.0 ],
					"bgfillcolor_color2" : [ 1.0, 1.0, 1.0, 1.0 ],
					"bgfillcolor_proportion" : 0.39,
					"bgfillcolor_type" : "gradient",
					"fontname" : "Arial",
					"fontsize" : 13.0,
					"gradient" : 0,
					"id" : "obj-69",
					"maxclass" : "message",
					"numinlets" : 2,
					"numoutlets" : 1,
					"outlettype" : [ "" ],
					"patching_rect" : [ 992.0, 739.0, 42.0, 23.0 ],
					"presentation" : 1,
					"presentation_rect" : [ 565.0, 4.0, 40.0, 23.0 ],
					"text" : "/stop",
					"textcolor" : [ 0.180392, 0.384314, 0.384314, 1.0 ]
				}

			}
, 			{
				"box" : 				{
					"fontname" : "Arial",
					"fontsize" : 9.0,
					"id" : "obj-28",
					"maxclass" : "newobj",
					"numinlets" : 1,
					"numoutlets" : 1,
					"outlettype" : [ "bang" ],
					"patching_rect" : [ 1289.0, 640.5, 48.0, 19.0 ],
					"text" : "loadbang"
				}

			}
, 			{
				"box" : 				{
					"fontname" : "Arial",
					"fontsize" : 9.0,
					"id" : "obj-29",
					"maxclass" : "message",
					"numinlets" : 2,
					"numoutlets" : 1,
					"outlettype" : [ "" ],
					"patching_rect" : [ 1289.0, 664.5, 32.5, 19.0 ],
					"text" : "60"
				}

			}
, 			{
				"box" : 				{
					"angle" : 0.0,
					"bgcolor" : [ 0.164706, 0.196078, 0.266667, 1.0 ],
					"id" : "obj-21",
					"maxclass" : "panel",
					"mode" : 0,
					"numinlets" : 1,
					"numoutlets" : 0,
					"patching_rect" : [ 20.0, 636.0, 300.0, 56.0 ],
					"presentation" : 1,
					"presentation_rect" : [ 425.0, 725.0, 225.0, 140.0 ],
					"proportion" : 0.39,
					"rounded" : 37
				}

			}
, 			{
				"box" : 				{
					"angle" : 0.0,
					"bgcolor" : [ 0.0, 0.0, 0.0, 1.0 ],
					"id" : "obj-14",
					"maxclass" : "panel",
					"mode" : 0,
					"numinlets" : 1,
					"numoutlets" : 0,
					"patching_rect" : [ 692.0, 136.0, 16.956522, 16.0 ],
					"presentation" : 1,
					"presentation_rect" : [ 3.0, 0.0, 348.0, 101.0 ],
					"proportion" : 0.39,
					"rounded" : 35
				}

			}
, 			{
				"box" : 				{
					"angle" : 0.0,
					"bgcolor" : [ 0.0, 0.0, 0.0, 1.0 ],
					"id" : "obj-40",
					"maxclass" : "panel",
					"mode" : 0,
					"numinlets" : 1,
					"numoutlets" : 0,
					"patching_rect" : [ 302.847808999999984, 834.0, 28.956522, 29.0 ],
					"presentation" : 1,
					"presentation_rect" : [ 4.0, 101.0, 321.0, 780.0 ],
					"proportion" : 0.39,
					"rounded" : 24
				}

			}
, 			{
				"box" : 				{
					"angle" : 0.0,
					"bgcolor" : [ 0.0, 0.0, 0.0, 1.0 ],
					"id" : "obj-43",
					"maxclass" : "panel",
					"mode" : 0,
					"numinlets" : 1,
					"numoutlets" : 0,
					"patching_rect" : [ 317.847808999999984, 849.0, 28.956522, 29.0 ],
					"presentation" : 1,
					"presentation_rect" : [ 326.0, 101.0, 324.0, 620.0 ],
					"proportion" : 0.39,
					"rounded" : 24
				}

			}
 ],
		"lines" : [ 			{
				"patchline" : 				{
					"destination" : [ "obj-1745", 0 ],
					"source" : [ "obj-1", 0 ]
				}

			}
, 			{
				"patchline" : 				{
					"destination" : [ "obj-1745", 0 ],
					"source" : [ "obj-10", 0 ]
				}

			}
, 			{
				"patchline" : 				{
					"destination" : [ "obj-1745", 0 ],
					"source" : [ "obj-12", 0 ]
				}

			}
, 			{
				"patchline" : 				{
					"destination" : [ "obj-27", 0 ],
					"source" : [ "obj-146", 0 ]
				}

			}
, 			{
				"patchline" : 				{
					"destination" : [ "obj-26", 0 ],
					"source" : [ "obj-148", 0 ]
				}

			}
, 			{
				"patchline" : 				{
					"destination" : [ "obj-1745", 0 ],
					"source" : [ "obj-16", 0 ]
				}

			}
, 			{
				"patchline" : 				{
					"destination" : [ "obj-1745", 0 ],
					"source" : [ "obj-1741", 0 ]
				}

			}
, 			{
				"patchline" : 				{
					"destination" : [ "obj-1745", 0 ],
					"source" : [ "obj-1743", 0 ]
				}

			}
, 			{
				"patchline" : 				{
					"destination" : [ "obj-78", 0 ],
					"source" : [ "obj-1745", 0 ]
				}

			}
, 			{
				"patchline" : 				{
					"destination" : [ "obj-74", 0 ],
					"source" : [ "obj-20", 0 ]
				}

			}
, 			{
				"patchline" : 				{
					"destination" : [ "obj-35", 0 ],
					"source" : [ "obj-22", 0 ]
				}

			}
, 			{
				"patchline" : 				{
					"destination" : [ "obj-29", 0 ],
					"source" : [ "obj-28", 0 ]
				}

			}
, 			{
				"patchline" : 				{
					"destination" : [ "obj-1745", 0 ],
					"source" : [ "obj-29", 0 ]
				}

			}
, 			{
				"patchline" : 				{
					"destination" : [ "obj-1745", 0 ],
					"source" : [ "obj-3", 0 ]
				}

			}
, 			{
				"patchline" : 				{
					"destination" : [ "obj-51", 0 ],
					"source" : [ "obj-30", 0 ]
				}

			}
, 			{
				"patchline" : 				{
					"destination" : [ "obj-71", 0 ],
					"source" : [ "obj-32", 0 ]
				}

			}
, 			{
				"patchline" : 				{
					"destination" : [ "obj-57", 0 ],
					"source" : [ "obj-33", 0 ]
				}

			}
, 			{
				"patchline" : 				{
					"destination" : [ "obj-32", 0 ],
					"source" : [ "obj-35", 0 ]
				}

			}
, 			{
				"patchline" : 				{
					"destination" : [ "obj-1745", 0 ],
					"source" : [ "obj-47", 0 ]
				}

			}
, 			{
				"patchline" : 				{
					"destination" : [ "obj-62", 0 ],
					"source" : [ "obj-56", 0 ]
				}

			}
, 			{
				"patchline" : 				{
					"destination" : [ "obj-23", 0 ],
					"source" : [ "obj-57", 0 ]
				}

			}
, 			{
				"patchline" : 				{
					"destination" : [ "obj-64", 0 ],
					"source" : [ "obj-58", 0 ]
				}

			}
, 			{
				"patchline" : 				{
					"destination" : [ "obj-63", 0 ],
					"midpoints" : [ 697.5, 627.0, 682.5, 627.0, 682.5, 498.0, 697.5, 498.0 ],
					"source" : [ "obj-59", 0 ]
				}

			}
, 			{
				"patchline" : 				{
					"destination" : [ "obj-1745", 0 ],
					"source" : [ "obj-6", 0 ]
				}

			}
, 			{
				"patchline" : 				{
					"destination" : [ "obj-62", 0 ],
					"source" : [ "obj-60", 0 ]
				}

			}
, 			{
				"patchline" : 				{
					"destination" : [ "obj-1745", 0 ],
					"source" : [ "obj-61", 0 ]
				}

			}
, 			{
				"patchline" : 				{
					"destination" : [ "obj-59", 0 ],
					"source" : [ "obj-62", 0 ]
				}

			}
, 			{
				"patchline" : 				{
					"destination" : [ "obj-62", 0 ],
					"source" : [ "obj-63", 0 ]
				}

			}
, 			{
				"patchline" : 				{
					"destination" : [ "obj-79", 0 ],
					"source" : [ "obj-64", 0 ]
				}

			}
, 			{
				"patchline" : 				{
					"destination" : [ "obj-62", 0 ],
					"hidden" : 1,
					"source" : [ "obj-68", 0 ]
				}

			}
, 			{
				"patchline" : 				{
					"destination" : [ "obj-76", 0 ],
					"source" : [ "obj-69", 0 ]
				}

			}
, 			{
				"patchline" : 				{
					"destination" : [ "obj-146", 0 ],
					"source" : [ "obj-74", 0 ]
				}

			}
, 			{
				"patchline" : 				{
					"destination" : [ "obj-17", 0 ],
					"order" : 0,
					"source" : [ "obj-75", 0 ]
				}

			}
, 			{
				"patchline" : 				{
					"destination" : [ "obj-20", 0 ],
					"order" : 3,
					"source" : [ "obj-75", 0 ]
				}

			}
, 			{
				"patchline" : 				{
					"destination" : [ "obj-33", 0 ],
					"order" : 1,
					"source" : [ "obj-75", 0 ]
				}

			}
, 			{
				"patchline" : 				{
					"destination" : [ "obj-88", 0 ],
					"order" : 2,
					"source" : [ "obj-75", 0 ]
				}

			}
, 			{
				"patchline" : 				{
					"destination" : [ "obj-79", 0 ],
					"source" : [ "obj-76", 0 ]
				}

			}
, 			{
				"patchline" : 				{
					"destination" : [ "obj-79", 0 ],
					"source" : [ "obj-78", 0 ]
				}

			}
, 			{
				"patchline" : 				{
					"destination" : [ "obj-77", 0 ],
					"source" : [ "obj-79", 0 ]
				}

			}
, 			{
				"patchline" : 				{
					"destination" : [ "obj-148", 0 ],
					"source" : [ "obj-88", 0 ]
				}

			}
, 			{
				"patchline" : 				{
					"destination" : [ "obj-51", 1 ],
					"source" : [ "obj-9", 0 ]
				}

			}
 ],
		"dependency_cache" : [ 			{
				"name" : "CNMAT_logo_ped.png",
				"bootpath" : "~/Documents/GitHub/CNMAT-Pedagogy-Apps/patchers/CNMAT Pedagogy Apps Dependencies",
				"patcherrelativepath" : "./CNMAT Pedagogy Apps Dependencies",
				"type" : "PNG",
				"implicit" : 1
			}
, 			{
				"name" : "Tempo Tracker.maxpat",
				"bootpath" : "~/Documents/GitHub/CNMAT-Pedagogy-Apps/patchers",
				"patcherrelativepath" : ".",
				"type" : "JSON",
				"implicit" : 1
			}
, 			{
				"name" : "badge2_ped.maxpat",
				"bootpath" : "~/Documents/GitHub/CNMAT-Pedagogy-Apps/patchers/CNMAT Pedagogy Apps Dependencies",
				"patcherrelativepath" : "./CNMAT Pedagogy Apps Dependencies",
				"type" : "JSON",
				"implicit" : 1
			}
, 			{
				"name" : "banner_ped.maxpat",
				"bootpath" : "~/Documents/GitHub/CNMAT-Pedagogy-Apps/patchers/CNMAT Pedagogy Apps Dependencies",
				"patcherrelativepath" : "./CNMAT Pedagogy Apps Dependencies",
				"type" : "JSON",
				"implicit" : 1
			}
, 			{
				"name" : "beat-display_ped.maxpat",
				"bootpath" : "~/Documents/GitHub/CNMAT-Pedagogy-Apps/patchers/CNMAT Pedagogy Apps Dependencies",
				"patcherrelativepath" : "./CNMAT Pedagogy Apps Dependencies",
				"type" : "JSON",
				"implicit" : 1
			}
, 			{
				"name" : "beat-divisor_ped.maxpat",
				"bootpath" : "~/Documents/GitHub/CNMAT-Pedagogy-Apps/patchers/CNMAT Pedagogy Apps Dependencies",
				"patcherrelativepath" : "./CNMAT Pedagogy Apps Dependencies",
				"type" : "JSON",
				"implicit" : 1
			}
, 			{
				"name" : "beats_sliced.xml",
				"bootpath" : "~/Documents/GitHub/CNMAT-Pedagogy-Apps/patchers/CNMAT Pedagogy Apps Dependencies",
				"patcherrelativepath" : "./CNMAT Pedagogy Apps Dependencies",
				"type" : "TEXT",
				"implicit" : 1
			}
, 			{
				"name" : "clicker-poly_ped.maxpat",
				"bootpath" : "~/Documents/GitHub/CNMAT-Pedagogy-Apps/patchers/CNMAT Pedagogy Apps Dependencies",
				"patcherrelativepath" : "./CNMAT Pedagogy Apps Dependencies",
				"type" : "JSON",
				"implicit" : 1
			}
, 			{
				"name" : "clicker~_ped.maxpat",
				"bootpath" : "~/Documents/GitHub/CNMAT-Pedagogy-Apps/patchers/CNMAT Pedagogy Apps Dependencies",
				"patcherrelativepath" : "./CNMAT Pedagogy Apps Dependencies",
				"type" : "JSON",
				"implicit" : 1
			}
, 			{
				"name" : "cnmat_blue.gif",
				"bootpath" : "~/Documents/GitHub/CNMAT-MMJ-Depot/media/Images",
				"patcherrelativepath" : "../../CNMAT-MMJ-Depot/media/Images",
				"type" : "GIFf",
				"implicit" : 1
			}
, 			{
				"name" : "fixlist.maxpat",
				"bootpath" : "~/Documents/GitHub/CNMAT-Pedagogy-Apps/patchers/CNMAT Pedagogy Apps Dependencies",
				"patcherrelativepath" : "./CNMAT Pedagogy Apps Dependencies",
				"type" : "JSON",
				"implicit" : 1
			}
, 			{
				"name" : "o.route.mxo",
				"type" : "iLaX"
			}
, 			{
				"name" : "pe_divmod~.maxpat",
				"bootpath" : "~/Documents/GitHub/CNMAT-Pedagogy-Apps/patchers/CNMAT Pedagogy Apps Dependencies",
				"patcherrelativepath" : "./CNMAT Pedagogy Apps Dependencies",
				"type" : "JSON",
				"implicit" : 1
			}
, 			{
				"name" : "pstore-simple-storage_ped.maxpat",
				"bootpath" : "~/Documents/GitHub/CNMAT-Pedagogy-Apps/patchers/CNMAT Pedagogy Apps Dependencies",
				"patcherrelativepath" : "./CNMAT Pedagogy Apps Dependencies",
				"type" : "JSON",
				"implicit" : 1
			}
, 			{
				"name" : "simple-stereo-gain~_ped.maxpat",
				"bootpath" : "~/Documents/GitHub/CNMAT-Pedagogy-Apps/patchers/CNMAT Pedagogy Apps Dependencies",
				"patcherrelativepath" : "./CNMAT Pedagogy Apps Dependencies",
				"type" : "JSON",
				"implicit" : 1
			}
, 			{
				"name" : "uc_license_.maxpat",
				"bootpath" : "~/Documents/GitHub/CNMAT-Pedagogy-Apps/patchers/CNMAT Pedagogy Apps Dependencies",
				"patcherrelativepath" : "./CNMAT Pedagogy Apps Dependencies",
				"type" : "JSON",
				"implicit" : 1
			}
 ],
		"autosave" : 0,
		"bgcolor" : [ 0.556863, 0.537255, 0.537255, 1.0 ]
	}

}
